<?xml version="1.0" encoding="UTF-8" standalone="no"?>
<svg
   xmlns:dc="http://purl.org/dc/elements/1.1/"
   xmlns:cc="http://creativecommons.org/ns#"
   xmlns:rdf="http://www.w3.org/1999/02/22-rdf-syntax-ns#"
   xmlns:svg="http://www.w3.org/2000/svg"
   xmlns="http://www.w3.org/2000/svg"
   version="1.1"
   id="svg5182"
   viewBox="0 0 73.686248 72.410627"
   height="500px"
   width="500px">
  <defs
     id="defs5184">
    <clipPath
       clipPathUnits="userSpaceOnUse"
       id="clipPath4598">
      <path
         d="m 82.5297,3307.767 0,1.071 -0.001,1.072 -0.01,1.075 -0.231,0.23 -1.05,0 -1.048,0.01 -1.051,0 -1.055,0 -1.053,0.011 -1.053,-0.01 -1.056,-0.011 -1.055,0 -1.056,0 -1.052,0 -1.057,0.01 -1.059,0 -1.062,-0.011 -1.062,0 -0.235,-0.233 0.002,-1.071 -0.004,-1.073 -0.01,-1.074 0.247,-0.241 1.053,0 1.058,0 1.06,0 1.063,0 1.063,0 0.246,-0.245 -0.01,-1.08 -0.006,-1.083 0.018,-1.083 -0.247,-0.25 -1.043,0 -1.043,0 -1.042,0.01 -1.043,-0.015 -1.044,0 -1.039,-0.01 -1.039,0 -1.04,-0.018 -1.045,0 -1.042,-0.015 -1.043,0 -1.046,-0.011 -1.044,-0.01 -1.045,0 -1.042,0 -1.046,-0.01 -1.049,-0.01 -1.051,-0.011 -1.051,0.01 -0.24,0.234 -10e-4,1.108 -0.01,1.111 10e-4,1.112 0.249,0.241 1.052,0 1.058,0 1.06,0 1.063,-0.01 1.063,0 0.242,0.241 0.003,1.071 -0.014,1.072 0.011,1.075 -0.242,0.23 -1.036,0 -1.035,0.017 -1.036,0 -1.041,-0.01 -1.039,0.011 -1.039,-0.01 -1.042,0 -1.041,0 -1.042,-0.01 -1.037,0 -1.043,0 -1.045,0.011 -1.048,0 -1.047,0 -0.434,-0.44 -0.005,-1.005 0.004,-1.008 -0.011,-1.007 0.248,-0.244 1.053,0.011 1.058,0 1.059,-0.014 1.063,0.016 1.063,-0.016 0.249,-0.234 -0.009,-1.047 -0.004,-1.047 0.009,-1.049 0,-1.049 -0.012,-1.051 0.008,-1.045 -0.005,-1.051 0.006,-1.054 -0.003,-1.054 0.005,-1.056 -0.244,-0.245 -1.053,0 -1.058,0 -1.06,0.015 -1.062,0 -1.063,0 -0.233,-0.249 -0.007,-1.07 0,-1.073 0.004,-1.074 0.236,-0.237 1.05,-0.01 1.049,0 1.05,0.018 1.055,-0.013 1.053,0.011 1.053,0 1.057,-0.011 1.054,0 1.057,0.01 1.051,0 1.057,-0.01 1.059,0 1.062,0 1.062,0 0.248,0.237 -0.014,1.071 0.007,1.074 -0.011,1.072 -0.23,0.25 -1.053,-0.01 -1.058,0 -1.06,0 -1.063,-0.01 -1.062,0 -0.247,0.243 0.006,0.996 0.007,1 -0.009,1 0.242,0.243 1.043,0 1.043,0.012 1.041,0 1.043,0 1.044,0.011 1.04,0 1.038,0 1.04,0 1.045,0 1.042,0.01 1.043,0 1.046,0.015 1.044,0 1.046,0.016 1.041,-0.014 1.047,0.01 1.048,0.011 1.051,0 1.052,0 0.245,-0.234 10e-4,-1.025 0,-1.028 -0.012,-1.028 -0.233,-0.24 -1.053,-0.01 -1.058,0.01 -1.06,-0.01 -1.063,0 -1.063,0.017 -0.241,-0.249 -0.005,-1.07 0,-1.073 0.004,-1.074 0.242,-0.245 1.05,0.01 1.049,0 1.051,-0.01 1.055,0 1.053,0 1.053,0.01 1.056,0 1.055,0 1.056,0.013 1.052,-0.013 1.057,0 1.059,0.011 1.062,0 1.061,0 0.243,0.235 0.002,1.071 0.002,1.074 -0.014,1.072 -0.233,0.231 -1.052,0.014 -1.058,-0.011 -1.06,0.01 -1.063,-0.01 -1.063,0.011 -0.237,0.234 -0.005,1.047 0.007,1.047 0.003,1.05 -0.002,1.049 -0.003,1.049 0.007,1.047 -0.006,1.051 -0.009,1.053 0.009,1.054 10e-4,1.056 0.235,0.236 1.053,0 1.058,0.01 1.06,0.011 1.063,-0.011 1.062,-0.01 0.242,0.248 z"
         id="path4600"
         style="clip-rule:evenodd" />
    </clipPath>
    <clipPath
       clipPathUnits="userSpaceOnUse"
       id="clipPath4604">
      <path
         d="m 33,3273 59,0 0,58 -59,0 0,-58 z"
         id="path4606" />
    </clipPath>
    <clipPath
       clipPathUnits="userSpaceOnUse"
       id="clipPath4582">
      <path
         d="m 33,3289.072 c 0,-2.53 1.519,-4.814 3.853,-5.792 l 23.194,-9.721 c 1.553,-0.651 3.302,-0.651 4.855,0 l 23.195,9.721 c 2.333,0.978 3.852,3.262 3.852,5.792 l 0,25.926 c 0,2.531 -1.519,4.814 -3.852,5.792 l -23.195,9.721 c -1.553,0.651 -3.302,0.651 -4.855,0 L 36.853,3320.79 C 34.519,3319.812 33,3317.529 33,3314.998 l 0,-25.926 z"
         id="path4584"
         style="clip-rule:evenodd" />
    </clipPath>
    <clipPath
       clipPathUnits="userSpaceOnUse"
       id="clipPath4588">
      <path
         d="m 33,3273 59,0 0,58 -59,0 0,-58 z"
         id="path4590" />
    </clipPath>
  </defs>
  <metadata
     id="metadata5187">
    <rdf:RDF>
      <cc:Work
         rdf:about="">
        <dc:format>image/svg+xml</dc:format>
        <dc:type
           rdf:resource="http://purl.org/dc/dcmitype/StillImage" />
        <dc:title></dc:title>
      </cc:Work>
    </rdf:RDF>
  </metadata>
  <g
     transform="translate(-263.15688,-70.442638)"
     id="layer1">
    <g
       id="g4578"
       transform="matrix(1.25,0,0,-1.25,221.90688,4234.1917)">
      <g
         id="g4580"
         clip-path="url(#clipPath4582)">
        <g
           id="g4586"
           clip-path="url(#clipPath4588)">
          <path
             d="m 28,3336 68.949,0 0,-67.929 -68.949,0 0,67.929 z"
             style="fill:#f44b2b;fill-opacity:1;fill-rule:nonzero;stroke:none"
             id="path4592" />
        </g>
      </g>
    </g>
    <g
       id="g4594"
       transform="matrix(1.25,0,0,-1.25,221.90688,4234.1917)">
      <g
         id="g4596"
         clip-path="url(#clipPath4598)">
        <g
           id="g4602"
           clip-path="url(#clipPath4604)">
          <path
             d="m 38.2577,3316.235 49.277,0 0,-28.397 -49.277,0 0,28.397 z"
             style="fill:#fefefe;fill-opacity:1;fill-rule:nonzero;stroke:none"
             id="path4608" />
        </g>
      </g>
    </g>
  </g>
</svg>
