<?xml version="1.0" encoding="UTF-8" standalone="no"?>
<svg
   xmlns="http://www.w3.org/2000/svg"
   width="500"
   height="500"
   viewBox="0 0 73.686248 72.410627">
  <path
     d="m 0,52.4091 c 0,3.1625 1.89875,6.0175 4.81625,7.24 l 28.9925,12.15125 c 1.94125,0.81375 4.1275,0.81375 6.06875,0 L 68.87125,59.6491 c 2.91625,-1.2225 4.815,-4.0775 4.815,-7.24 l 0,-32.4075 c 0,-3.16375 -1.89875,-6.0175 -4.815,-7.24 L 39.8775,0.61035 c -1.94125,-0.81375 -4.1275,-0.81375 -6.06875,0 L 4.81625,12.7616 C 1.89875,13.9841 0,16.83785 0,20.0016 l 0,32.4075 z"
     id="outline"
     style="fill:#f44b2b" />
  <path
     id="letter-h"
     d="m 61.385074,43.436616 0,1.338753 -0.0013,1.340004 -0.0125,1.343754 -0.28875,0.287501 -1.3125,0 -1.310002,0.0125 -1.313752,0 -1.318751,0 -1.316251,0.01375 -1.316251,-0.01251 -1.319997,-0.01374 -1.318751,0 -1.320001,0 -1.315002,0 -1.321251,0.0125 -1.323752,0 -1.327505,-0.01375 -1.327501,0 -0.29375,-0.291251 0.0025,-1.338754 -0.005,-1.341253 -0.0125,-1.342504 0.308751,-0.301252 1.316251,0 1.322506,0 1.325001,0 1.328752,0 1.32875,0 0.307501,-0.30625 -0.0125,-1.350004 -0.0075,-1.353754 0.0225,-1.353754 -0.308751,-0.312501 -1.303752,0 -1.303751,0 -1.302501,0.0125 -1.303755,-0.01875 -1.305002,0 -1.298751,-0.0125 -1.298751,0 -1.300001,-0.0225 -1.306252,0 -1.302501,-0.01875 -1.303752,0 -1.307501,-0.01375 -1.305001,-0.0125 -1.306252,0 -1.302501,0 -1.307501,-0.0125 -1.311251,-0.01251 -1.313752,-0.01375 -1.313752,0.01251 -0.3,0.2925 -0.0013,1.385004 -0.0125,1.388755 0.0013,1.390003 0.31125,0.301252 1.315002,0 1.322502,0 1.325001,0 1.328752,-0.0125 1.328751,0 0.302501,0.30125 0.0038,1.338754 -0.0175,1.340004 0.01375,1.343754 -0.3025,0.287501 -1.295002,0 -1.293751,0.02125 -1.295001,0 -1.301252,-0.0125 -1.298752,0.01375 -1.298751,-0.0125 -1.302501,0 -1.301252,0 -1.302501,-0.01251 -1.296251,0 -1.303752,0 -1.306251,0.01375 -1.310002,0 -1.30875,0 -0.542501,-0.550002 -0.0063,-1.256254 0.005,-1.260003 -0.01375,-1.258753 0.310001,-0.305001 1.316251,0.01375 1.3225,0 1.323752,-0.0175 1.328751,0.02 1.328752,-0.02 0.31125,-0.2925 -0.01125,-1.308754 -0.005,-1.308754 0.01125,-1.311253 0,-1.311255 -0.015,-1.313753 0.01,-1.306254 -0.0063,-1.313753 0.0075,-1.317505 -0.0038,-1.317504 0.0063,-1.320003 -0.305,-0.306251 -1.316251,0 -1.322502,0 -1.325001,0.01875 -1.327502,0 -1.32875,0 -0.291251,-0.311251 -0.0088,-1.337504 0,-1.341253 0.005,-1.342505 0.295001,-0.296251 1.312501,-0.0125 1.311251,0 1.312501,0.0225 1.318752,-0.01625 1.316251,0.01375 1.316252,0 1.321251,-0.01375 1.317501,0 1.321251,0.0125 1.313753,0 1.321251,-0.0125 1.323751,0 1.327501,0 1.327502,0 0.31,0.296251 -0.0175,1.338753 0.0088,1.342504 -0.01375,1.340004 -0.2875,0.312501 -1.316252,-0.0125 -1.322501,0 -1.325,0 -1.328752,-0.0125 -1.327503,0 -0.30875,0.303751 0.0075,1.245003 0.0088,1.250004 -0.01125,1.250003 0.3025,0.303752 1.303753,0 1.30375,0.015 1.301252,0 1.303751,0 1.305002,0.01375 1.300001,0 1.297501,0 1.300001,0 1.306252,0 1.302501,0.0125 1.303751,0 1.307501,0.01875 1.305003,0 1.307501,0.02 1.301251,-0.0175 1.308755,0.0125 1.310001,0.01374 1.31375,0 1.315002,0 0.30625,-0.2925 0.0013,-1.281254 0,-1.285004 -0.015,-1.285004 -0.291251,-0.3 -1.316251,-0.0125 -1.322501,0.0125 -1.325002,-0.0125 -1.328754,0 -1.328752,0.02125 -0.30125,-0.311251 -0.0063,-1.337504 0,-1.341254 0.005,-1.342503 0.3025,-0.306252 1.312502,0.01251 1.311255,0 1.313751,-0.01251 1.318752,0 1.316251,0 1.316251,0.01251 1.320003,0 1.318745,0 1.320001,0.01625 1.315001,-0.01625 1.321251,0 1.323752,0.01375 1.327502,0 1.326251,0 0.30375,0.29375 0.0025,1.338755 0.0025,1.342504 -0.0175,1.340003 -0.291249,0.288751 -1.315001,0.0175 -1.322502,-0.01375 -1.325001,0.0125 -1.328752,-0.0125 -1.328751,0.01375 -0.29625,0.292501 -0.0063,1.308754 0.0088,1.308753 0.0038,1.312504 -0.0025,1.311254 -0.0038,1.311254 0.0088,1.308754 -0.0075,1.313753 -0.01125,1.316254 0.01125,1.317504 0.0013,1.320003 0.293751,0.295002 1.316252,0 1.3225,0.0125 1.325001,0.01375 1.328752,-0.01375 1.327502,-0.0125 0.302499,0.31 z"
     style="fill:#ffffff;" />
</svg>
